<?xml version="1.0" encoding="UTF-8"?>
<svg id="Layer_1" xmlns="http://www.w3.org/2000/svg" version="1.1" viewBox="0 0 100 100">
  <!-- Generator: Adobe Illustrator 29.6.1, SVG Export Plug-In . SVG Version: 2.1.1 Build 9)  -->
  <g id="Outline">
    <g>
      <path d="M36.3,82.7v-11.8c0-1.6-.4-3.1-1.2-4.4l-6.6-11.1c-1.9-3.1-6.1-4.2-9.3-2.4v-17.4c0-3.3-2.7-6-6-6s-6,2.7-6,6v15.7c0,10.9,2.6,21.7,7.5,31.4-2.3.5-4.1,2.5-4.1,5v3.4c0,2.8,2.3,5.1,5.1,5.1h6.8c.9,0,1.7-.8,1.7-1.7s-.8-1.7-1.7-1.7h-6.8c-.9,0-1.7-.8-1.7-1.7v-3.4c0-.9.8-1.7,1.7-1.7h20.5c.9,0,1.7.8,1.7,1.7v3.4c0,.9-.8,1.7-1.7,1.7h-6.8c-.9,0-1.7.8-1.7,1.7s.8,1.7,1.7,1.7h6.8c2.8,0,5.1-2.3,5.1-5.1v-3.4c0-2.8-2.3-5.1-5.1-5.1ZM32.9,82.7h-14.4c-5.2-9.6-7.9-20.4-7.9-31.3v-15.7c0-1.4,1.1-2.6,2.6-2.6,1.4,0,2.6,1.2,2.6,2.6v22.3c-.2,1.4,0,2.8.6,4.1l4.7,9.4c.4.8,1.4,1.2,2.3.8.8-.4,1.2-1.4.8-2.3l-4.7-9.4c-.8-1.6-.2-3.6,1.3-4.5,1.6-1,3.8-.4,4.8,1.2l6.6,11c.5.8.7,1.7.7,2.7v11.8h0Z"/>
      <path d="M91.1,50.2c.9,0,1.7-.8,1.7-1.7v-12.8c0-3.3-2.7-6-6-6-3.3,0-6,2.7-6,6v17.4c-1.5-.9-3.3-1.1-5-.7-1.8.4-3.3,1.6-4.2,3.1l-6.6,11c-.8,1.3-1.2,2.9-1.2,4.4v11.8c-2.8,0-5.1,2.3-5.1,5.1v3.4c0,2.8,2.3,5.1,5.1,5.1h20.5c2.8,0,5.1-2.3,5.1-5.1v-3.4c0-2.5-1.8-4.5-4.1-5,4.3-8.5,6.8-17.9,7.4-27.4,0-.9-.7-1.8-1.6-1.8-1,0-1.8.7-1.8,1.6-.5,9.6-3.2,19-7.8,27.5h-14.4v-11.8c0-.9.3-1.8.7-2.6l6.6-11c1-1.6,3.1-2.2,4.8-1.2,1.5.9,2.1,2.9,1.3,4.5l-4.7,9.4c-.4.8,0,1.9.8,2.3.8.4,1.9,0,2.3-.8l4.7-9.4c.7-1.3.8-2.8.6-4.1v-22.3c0-1.3,1.2-2.6,2.6-2.6s2.6,1.2,2.6,2.6v12.8c0,.9.8,1.7,1.7,1.7h0ZM85.9,87.8v3.4c0,.9-.8,1.7-1.7,1.7h-20.5c-.9,0-1.7-.8-1.7-1.7v-3.4c0-.9.8-1.7,1.7-1.7h20.5c.9,0,1.7.8,1.7,1.7Z"/>
      <g id="Outline1" data-name="Outline">
        <path d="M75.8,22.8c.4-.4.5-.9.3-1.4-.2-.5-.6-.9-1.1-.9l-6.4-.9c-.7-.1-1.4.4-1.5,1.2-.1.7.4,1.4,1.2,1.5l3.7.5-7,6.8c-2.3,2.2-3.3,5.4-2.7,8.4l1.6,9.6-8.7-4.6c-2.8-1.5-6.1-1.5-8.9,0l-8.7,4.6,1.6-9.6c.5-3.1-.5-6.2-2.7-8.5l-7-6.8,9.7-1.4c3.1-.4,5.8-2.4,7.2-5.2l4.3-8.8,4.3,8.8c1.4,2.8,4.1,4.8,7.2,5.2h.6c.7.2,1.4-.3,1.5-1.1.1-.7-.4-1.4-1.2-1.5h-.6c-2.2-.4-4.1-1.8-5.1-3.8l-5.6-11.3c-.5-.9-2-.9-2.4,0l-5.6,11.3c-1,2-2.9,3.4-5.1,3.7l-12.4,1.8c-.5,0-.9.4-1.1.9-.2.5,0,1,.3,1.4l9,8.8c1.6,1.6,2.3,3.8,2,6l-2.1,12.4c0,.5.1,1,.5,1.3.4.3,1,.3,1.4.1l11.1-5.8c2-1,4.4-1,6.3,0l11.1,5.8c.5.2,1,.2,1.4-.1.4-.3.6-.8.5-1.3l-2.1-12.4c-.4-2.2.3-4.5,2-6l9-8.8h0Z"/>
      </g>
    </g>
  </g>
</svg>