<?xml version="1.0" encoding="UTF-8"?>
<svg id="Layer_1" xmlns="http://www.w3.org/2000/svg" version="1.1" viewBox="0 0 48 48">
  <!-- Generator: Adobe Illustrator 29.6.1, SVG Export Plug-In . SVG Version: 2.1.1 Build 9)  -->
  <defs>
    <style>
      .st0 {
        fill: #5297f7;
      }
    </style>
  </defs>
  <g id="_13-office">
    <path class="st0" d="M47,46H1c-.6,0-1,.4-1,1s.4,1,1,1h46c.6,0,1-.4,1-1s-.4-1-1-1Z"/>
    <path class="st0" d="M47,30h-9v-9c0-.6-.4-1-1-1h-2v-3c0-.6-.4-1-1-1h-6c-.6,0-1,.4-1,1v3h-1V7c0-.4-.2-.8-.6-.9L11.4,0c-.5-.2-1.1,0-1.3.5,0,.1,0,.3,0,.4v23c0,.6.4,1,1,1s1-.4,1-1V2.5l12,5.1v34.3h-14v-3.1c2.7.6,5.3-1.2,5.9-3.9.6-2.7-1.2-5.3-3.9-5.9-.1,0-.3,0-.4,0-1.1-2.5-4-3.7-6.5-2.6-2.5,1.1-3.7,4-2.6,6.5.1.3.2.5.4.7-.5.7-.8,1.5-.8,2.3,0,2.2,1.8,4,4,4,.7,0,1.4-.2,2-.6v2.6H1c-.6,0-1,.4-1,1s.4,1,1,1h46c.6,0,1-.4,1-1v-12c0-.6-.4-1-1-1ZM6,38c-1.1,0-2-.9-2-2,0-.6.3-1.2.7-1.5.4-.4.5-1,.1-1.4,0,0,0,0,0,0-1.1-1.2-1.1-3.1.1-4.2,1.2-1.1,3.1-1.1,4.2.1.3.4.6.8.7,1.3.1.4.5.8,1,.8,0,0,.1,0,.2,0,1.7,0,3,1.4,3,3,0,1.7-1.4,3-3,3-.6,0-1.2-.2-1.7-.5-.5-.3-1.1-.2-1.4.2,0,0,0,0,0,.1-.3.7-1,1.2-1.8,1.2ZM29,18h4v2h-4v-2ZM26,22h10v20h-10v-20ZM41,42v-2h2v2h-2ZM45,42v-3c0-.6-.4-1-1-1h-4c-.6,0-1,.4-1,1v3h-1v-10h8v10h-1Z"/>
    <path class="st0" d="M14,12h2c.6,0,1-.4,1-1s-.4-1-1-1h-2c-.6,0-1,.4-1,1s.4,1,1,1Z"/>
    <path class="st0" d="M20,12h2c.6,0,1-.4,1-1s-.4-1-1-1h-2c-.6,0-1,.4-1,1s.4,1,1,1Z"/>
    <path class="st0" d="M14,16h2c.6,0,1-.4,1-1s-.4-1-1-1h-2c-.6,0-1,.4-1,1s.4,1,1,1Z"/>
    <path class="st0" d="M20,16h2c.6,0,1-.4,1-1s-.4-1-1-1h-2c-.6,0-1,.4-1,1s.4,1,1,1Z"/>
    <path class="st0" d="M14,20h2c.6,0,1-.4,1-1s-.4-1-1-1h-2c-.6,0-1,.4-1,1s.4,1,1,1Z"/>
    <path class="st0" d="M20,20h2c.6,0,1-.4,1-1s-.4-1-1-1h-2c-.6,0-1,.4-1,1s.4,1,1,1Z"/>
    <path class="st0" d="M14,24h2c.6,0,1-.4,1-1s-.4-1-1-1h-2c-.6,0-1,.4-1,1s.4,1,1,1Z"/>
    <path class="st0" d="M20,24h2c.6,0,1-.4,1-1s-.4-1-1-1h-2c-.6,0-1,.4-1,1s.4,1,1,1Z"/>
    <path class="st0" d="M14,28h2c.6,0,1-.4,1-1s-.4-1-1-1h-2c-.6,0-1,.4-1,1s.4,1,1,1Z"/>
    <path class="st0" d="M20,28h2c.6,0,1-.4,1-1s-.4-1-1-1h-2c-.6,0-1,.4-1,1s.4,1,1,1Z"/>
    <path class="st0" d="M20,32h2c.6,0,1-.4,1-1s-.4-1-1-1h-2c-.6,0-1,.4-1,1s.4,1,1,1Z"/>
    <path class="st0" d="M20,36h2c.6,0,1-.4,1-1s-.4-1-1-1h-2c-.6,0-1,.4-1,1s.4,1,1,1Z"/>
    <path class="st0" d="M20,40h2c.6,0,1-.4,1-1s-.4-1-1-1h-2c-.6,0-1,.4-1,1s.4,1,1,1Z"/>
    <rect class="st0" x="39" y="34" width="2" height="2"/>
    <rect class="st0" x="43" y="34" width="2" height="2"/>
    <rect class="st0" x="28" y="24" width="2" height="2"/>
    <rect class="st0" x="32" y="24" width="2" height="2"/>
    <rect class="st0" x="28" y="28" width="2" height="2"/>
    <rect class="st0" x="32" y="28" width="2" height="2"/>
    <rect class="st0" x="28" y="32" width="2" height="2"/>
    <rect class="st0" x="32" y="32" width="2" height="2"/>
    <rect class="st0" x="28" y="36" width="2" height="2"/>
    <rect class="st0" x="32" y="36" width="2" height="2"/>
  </g>
</svg>