<?xml version="1.0" encoding="UTF-8"?>
<svg id="Layer_1" xmlns="http://www.w3.org/2000/svg" version="1.1" viewBox="0 0 100 100">
  <!-- Generator: Adobe Illustrator 29.6.1, SVG Export Plug-In . SVG Version: 2.1.1 Build 9)  -->
  <path d="M136.6,135.2h0c-6-2.4-10.8-7.1-12.7-13.2s-.6-2.4-.9-3.7l-1.9-11.2c3-.4,6-1.7,8.4-4.1,3.4-3.4,4.7-8.2,4.1-12.7-4.5-.6-9.3.6-12.7,4.1-3.4,3.4-4.3,6.5-4.3,10.8v6.9c-.4-.9-1.1-1.7-1.9-2.4-3.2-3.2-8-4.5-12.3-3.7-.9,4.3.4,9.1,3.7,12.3s6.7,4.1,10.6,3.9v4.5c0,1.1-.9,1.7-1.9,1.5-11.6-2.6-23.7-3.9-35.4-3.9H-6.1c-5.2,0-9.9-1.9-13.6-5.6l-3.2-3.2c3-.4,5.8-1.7,8.2-4.1,3.4-3.4,4.7-8.2,4.1-12.7-4.5-.6-9.3.6-12.7,4.1s-3.7,5.2-4.1,8.2l-4.3-4.3c-.4-.4-.6-.6-1.1-1.1-.6-.9-1.5-1.5-2.4-2.2-2.4-1.7-5.6-2.6-8.8-2.6-5,0-9.3,2.2-11.9,5.4,2.6,3.2,6.9,5.4,11.9,5.4s5.8-.9,8.2-2.4l12.9,15.3c.4.6.9,1.1,1.5,1.5-3,.6-5.8,2.2-8,4.3-3.7,3.7-5.2,8.6-4.5,13.2,4.5.6,9.5-.9,13.2-4.5,2.6-2.6,4.1-5.8,4.5-9.1,3.4,1.9,7.3,3,11.4,3H.3c.9,0,1.3.6,1.5.9,0,.2.4.9,0,1.7l-7.5,13.8c-.4.9-.2,2.2.6,2.8.4.2.9.4,1.3.4s1.3-.2,1.5-.6l7.1-8c0,3.2,1.5,6.5,3.9,9.1,3.2,3.2,8,4.5,12.3,3.7.9-4.3-.4-9.1-3.7-12.3-2.6-2.6-5.8-3.9-9.3-4.1,4.1-4.5,9.9-7.1,16.2-7.1h57.8c14,0,26.1,10.1,28.5,23.9s1.1,1.9,2.2,1.9c11.2,0,21.1-7.1,24.6-17.9l1.1-3.4v-.6c0-.9-.4-1.5-1.3-1.9h-.4Z"/>
  <g>
    <path d="M34.6,120.3h1.9c-1.9-1.1-3.7-2.4-5.4-3.7-4.3,1.5-7.3,5.4-7.3,10.1s.9,2.2,2.2,2.2h30.2c1.3,0,2.2-.9,2.2-2.2s0,0,0,0c-5.2-.2-10.1-1.3-14.7-3h0c0,.4.2.6.4.9h-15.5"/>
    <g>
      <path d="M56.2,53.5v.6c-1.5,3.9-3.7,7.3-6.5,10.1h0c-2.8-2.8-5-6.3-6.3-10.1v-.6c-.2,0,6.3-6.5,6.3-6.5l6.5,6.5Z"/>
      <path d="M55.8,54.4v-.6c.2,0-6.3-6.5-6.3-6.5v11.6c0,1.9,2.6,2.8,3.7,1.1s1.9-3.4,2.6-5.4v-.2Z"/>
      <path d="M62.7,27.6c-5.4,0-10.3,3-12.9,7.3-2.6-4.3-7.5-7.3-12.9-7.3-8.4,0-15.1,6.7-15.1,15.1s6.7,15.1,15.1,15.1,3.7-.4,5.4-1.1c1.5,3.4,3.4,6.5,6,9.1s1.1.6,1.5.6,1.1,0,1.5-.6c2.6-2.6,4.5-5.6,6-9.1,1.7.6,3.4,1.1,5.4,1.1,8.4,0,15.1-6.7,15.1-15.1s-6.7-15.1-15.1-15.1ZM26,42.7c0-6,4.7-10.8,10.8-10.8s10.8,4.7,10.8,10.8-4.7,10.8-10.8,10.8-10.8-4.7-10.8-10.8ZM62.7,53.5c-6,0-10.8-4.7-10.8-10.8s4.7-10.8,10.8-10.8,10.8,4.7,10.8,10.8-4.7,10.8-10.8,10.8Z"/>
      <path d="M58.3,42.9c0,2.4,1.9,4.3,4.3,4.3s4.3-1.9,4.3-4.3-1.9-4.3-4.3-4.3-4.3,1.9-4.3,4.3Z"/>
      <path d="M32.5,42.9c0,2.4,1.9,4.3,4.3,4.3s4.3-1.9,4.3-4.3-1.9-4.3-4.3-4.3-4.3,1.9-4.3,4.3Z"/>
    </g>
    <path d="M54.2,124.6c.9-2.6,3.2-4.3,6-4.3h4.3c1.9,0,3.4,1.1,4.3,2.6l.4.9c0,.2.2.4.4.6h-15.5v.2Z"/>
    <path d="M101.2,130.9l-7.8-48.7c-.6-4.3-2.6-8.2-5-11.2v-23.7c0-8.4-2.8-16.8-7.8-23.5h.9c.9,0,1.5-.6,1.9-1.3.2-.6,0-1.5-.2-2.2-8.2-10.1-20.5-16-33.4-16s-25.2,5.8-33.4,16c-.4.6-.6,1.5-.2,2.2.2.6,1.1,1.3,1.9,1.3h.9c-5,6.7-7.8,15.1-7.8,23.5v32.3c0,27.4,22.2,49.6,49.6,49.6h19.2c3.7,1.3,7.3,2.4,11.2,3l8.2,1.3h.4c.6,0,1.1-.2,1.5-.6.4-.4.6-1.1.6-1.9h-.9ZM49.7,8.2c10.3,0,20.1,4.1,27.4,11.2h-.9c-11.4,1.9-20.9,7.3-26.5,14.7-5.4-7.5-15.1-12.9-26.3-14.7h-.9c7.3-7.1,17-11.2,27.4-11.2h-.2ZM15.2,47c0-6,1.7-12.1,4.5-17.2s6.3-5.4,10.1-4.1c8.2,2.8,14.4,7.5,17.9,13.6.4.6,1.1,1.1,1.9,1.1s1.5-.4,1.9-1.1c3.2-6,9.7-11,17.9-13.6,8.2-2.6,8.2.4,10.1,4.1,3,5.2,4.5,11.2,4.5,17.2h0c0,3.2-.9,6.5-3,8.8s-4.5,4.1-7.3,5.2l-3,1.1h-5.2c-7.8,0-14.7,3.7-19.2,9.3-2.2-2.8-5.2-4.7-8.6-6l-12.3-4.3c-3-1.1-5.4-2.8-7.3-5.2s-3-5.6-3-8.8h0ZM84.2,58.2v8.6c-2.6-1.9-5.6-3.2-8.8-3.9,2.8-1.1,5.4-3,7.3-5.2s1.5-.2,1.5.6v-.2ZM60.5,126.8h-8.6c0-1.1,0-1.9.4-3-21.1-3.9-37.1-22.2-37.1-44.4v-21.3c0-.9,1.1-1.1,1.5-.6,2.2,2.6,5,4.5,8.2,5.6l12.3,4.3c3.2,1.1,6,3.2,8,5.8-3.2,5-4.7,11-3.7,17.5s1.7,5.8,3,8.4c6,10.8,14.9,19.4,25.4,25.4l-9.5,2.2v.2ZM91.3,127.7c-18.3-3-34.5-14.4-43.3-30.8-.9-1.7-1.7-3.4-2.2-5.4-3-13.2,7.1-25,19.8-25h4.5c9.5,0,17.7,6.9,19.2,16.4l5,31.3c.2,1.7-1.5,3.2-3,2.6-5.8-1.9-10.8-5.4-14.9-10.1-.4-.4-1.1-.4-1.5,0s-.4,1.1,0,1.5c3.7,4.3,8.4,7.8,13.6,9.9s7.5,5.8,8.4,10.6h0l-5.2-.9h-.4Z"/>
    <path d="M61.1,116h-.6c-6,0-10.8,4.7-10.8,10.8s.9,2.2,2.2,2.2h30.2c.6,0,1.3-.4,1.7-.9-8.4-2.4-16-6.5-22.6-12.1Z"/>
  </g>
</svg>