<?xml version="1.0" encoding="UTF-8"?>
<svg id="_x31_7-Key_card" xmlns="http://www.w3.org/2000/svg" version="1.1" viewBox="0 0 64 64">
  <!-- Generator: Adobe Illustrator 29.5.1, SVG Export Plug-In . SVG Version: 2.1.0 Build 141)  -->
  <defs>
    <style>
      .st0 {
        fill: #f9f9f9;
      }

      .st0, .st1, .st2, .st3, .st4 {
        fill-rule: evenodd;
      }

      .st0, .st2 {
        stroke-width: 1.5px;
      }

      .st0, .st2, .st3, .st4 {
        stroke: #2a81ea;
        stroke-miterlimit: 10;
      }

      .st1 {
        fill: #2a81ea;
      }

      .st2, .st4 {
        fill: #8dc1ff;
      }

      .st3 {
        fill: #514664;
      }
    </style>
  </defs>
  <path class="st1" d="M29.8,54.7l9-5.2c.2-.1.3-.4.2-.7-.1-.2-.4-.3-.7-.2l-9,5.2c-.2.1-.3.4-.2.7.1.2.4.3.7.2h0Z"/>
  <path class="st1" d="M30.7,49.5l9,5.2c.2.1.5,0,.7-.2.1-.2,0-.5-.2-.7l-9-5.2c-.2-.1-.5,0-.7.2-.1.2,0,.5.2.7h0Z"/>
  <path class="st3" d="M14.5,36.9v19.8c0,.3.2.5.5.5s.5-.2.5-.5v-19.8c0-.3-.2-.5-.5-.5s-.5.2-.5.5Z"/>
  <path class="st3" d="M54,36.9v19.8c0,.3.2.5.5.5s.5-.2.5-.5v-19.8c0-.3-.2-.5-.5-.5s-.5.2-.5.5Z"/>
  <path class="st3" d="M45.7,41.6h8.8c.3,0,.5-.2.5-.5s-.2-.5-.5-.5h-8.8c-.3,0-.5.2-.5.5s.2.5.5.5ZM15,41.6h8.8c.3,0,.5-.2.5-.5s-.2-.5-.5-.5h-8.8c-.3,0-.5.2-.5.5s.2.5.5.5Z"/>
  <path class="st0" d="M30.4,21.6h0c0,.9.3,1.7,1,2.3.6.6,1.4,1,2.3,1h2.2c.9,0,1.7-.3,2.3-1,.6-.6,1-1.4,1-2.3,0,0,0,0,0,0,0,0,0-.4,0-.7,0,0,0,0,0,0,0-.6.3-1.3.8-1.7,0,0,0,0,0,0,2-1.6,3.3-4,3.3-6.7,0-4.7-3.8-8.5-8.5-8.5s-8.5,3.8-8.5,8.5,1.3,5.2,3.3,6.7c.5.4.8,1,.8,1.7v.8s0,0,0,0Z"/>
  <path class="st1" d="M34.3,13.8v6.4c0,.3.2.5.5.5s.5-.2.5-.5v-6.4c0-.3-.2-.5-.5-.5s-.5.2-.5.5Z"/>
  <path class="st1" d="M31.2,10.5v1c0,.7.3,1.4.8,1.9.5.5,1.2.8,1.9.8h1.6c.7,0,1.4-.3,1.9-.8.5-.5.8-1.2.8-1.9v-1c0-.3-.2-.5-.5-.5s-.5.2-.5.5v1c0,.5-.2.9-.5,1.2s-.8.5-1.2.5h-1.6c-.5,0-.9-.2-1.2-.5s-.5-.8-.5-1.2v-1c0-.3-.2-.5-.5-.5s-.5.2-.5.5h0Z"/>
  <path class="st2" d="M41.7,47c0-.2-.3-.4-.5-.3-.3,0-.6,0-.9,0h-2.2c-.1,0-.3,0-.4.2,0,.1-.1.3,0,.4l2.6,9.6c.3,1.1,1.4,1.7,2.5,1.4,1.1-.3,1.7-1.4,1.4-2.5l-2.4-8.8ZM28.3,46.7c-.2,0-.5.1-.5.3l-2.4,8.8c-.3,1.1.3,2.2,1.4,2.5,1.1.3,2.2-.3,2.5-1.4l2.6-9.6c0-.1,0-.3,0-.4,0-.1-.2-.2-.4-.2h-2.2c-.3,0-.6,0-.9,0h0Z"/>
  <path class="st2" d="M43.7,32.1c-.1,0-.3,0-.4.2,0,.1-.1.3,0,.4l1,4.3c0,.2.2.4.5.4h12.1c1.1,0,2-.9,2-2v-1.3c0-1.1-.9-2-2-2h-13.1ZM26.2,32.7c0-.1,0-.3,0-.4,0-.1-.2-.2-.4-.2h-13.1c-1.1,0-2,.9-2,2v1.3c0,1.1.9,2,2,2h12.1c.2,0,.4-.2.5-.4l1-4.3h0Z"/>
  <path class="st2" d="M43.8,30.7c-.3-1.3-1.5-2.2-2.8-2.2h-12.4c-1.3,0-2.5.9-2.8,2.2-.5,2.2-1.5,6.2-2.3,9.6-.4,1.8,0,3.7,1.1,5.1s2.9,2.3,4.7,2.3h11c1.8,0,3.6-.8,4.7-2.3s1.5-3.3,1.1-5.1c-.8-3.4-1.8-7.4-2.3-9.6Z"/>
  <path class="st4" d="M37.5,24.1c0-.2,0-.3-.2-.4-.1,0-.3-.1-.5,0-.3.1-.6.2-1,.2h-2.2c-.3,0-.7,0-1-.2-.2,0-.3,0-.5,0-.1,0-.2.3-.2.4.1,1.4,1.3,2.5,2.8,2.5s2.6-1.1,2.8-2.5h0Z"/>
  <path class="st2" d="M39.4,19.7h-9.3c.2.3.3.7.3,1.1v.8s0,0,0,0c0,.9.3,1.7,1,2.3.6.6,1.4,1,2.3,1h2.2c.9,0,1.7-.3,2.3-1,.6-.6,1-1.4,1-2.3,0,0,0,0,0,0,0,0,0-.4,0-.7,0,0,0,0,0,0,0-.4.1-.8.3-1.1h0Z"/>
</svg>