<?xml version="1.0" encoding="UTF-8"?>
<svg id="_x31_7-Key_card" xmlns="http://www.w3.org/2000/svg" version="1.1" viewBox="0 0 64 64">
  <!-- Generator: Adobe Illustrator 29.5.1, SVG Export Plug-In . SVG Version: 2.1.0 Build 141)  -->
  <defs>
    <style>
      .st0 {
        fill: #c9d5e3;
      }

      .st1 {
        fill: #618dd4;
      }

      .st2 {
        stroke-width: 2px;
      }

      .st2, .st3 {
        stroke: #2a81ea;
        stroke-miterlimit: 10;
      }

      .st2, .st4 {
        fill: #8dc1ff;
      }

      .st5 {
        fill: #edf3fa;
      }

      .st3, .st6 {
        fill: #2a81ea;
      }
    </style>
  </defs>
  <rect class="st4" x="29.6" y="33.7" width="2.7" height="3.4"/>
  <rect class="st4" x="36.9" y="33.7" width="2.7" height="3.4"/>
  <rect class="st4" x="47.7" y="33.7" width="2.7" height="3.4"/>
  <rect class="st4" x="55" y="33.7" width="2.7" height="3.4"/>
  <path class="st1" d="M60.7,37.1H24.6v8.2h37.4v-7c0-.7-.6-1.2-1.2-1.2Z"/>
  <path class="st4" d="M3.7,11.7h18.9c1.1,0,2,.9,2,2v47.1H3.7c-1.1,0-2-.9-2-2V13.6c0-1.1.9-2,2-2Z"/>
  <path class="st1" d="M9.3,31.5H1.7v3.5h5c1.4,0,2.5-1.1,2.5-2.5v-.9Z"/>
  <circle class="st5" cx="31.2" cy="41.1" r="1.6"/>
  <circle class="st5" cx="38" cy="41.1" r="1.6"/>
  <circle class="st5" cx="56.1" cy="41.1" r="1.6"/>
  <circle class="st5" cx="49.2" cy="41.1" r="1.6"/>
  <path class="st2" d="M24.6,45.3v15.4h36.1c.7,0,1.2-.6,1.2-1.2v-14.2H24.6Z"/>
  <rect class="st0" x="41" y="50.4" width="5.3" height="4.5" rx=".7" ry=".7"/>
  <rect class="st4" x="41" y="50.4" width="5.3" height="4.5" rx=".7" ry=".7"/>
  <path class="st6" d="M24.3,32.2H2.1c-.4,0-.7-.3-.7-.7s.3-.7.7-.7h22.2c.4,0,.7.3.7.7s-.3.7-.7.7Z"/>
  <path class="st6" d="M58.8,34.4h-12.2c-.4,0-.7-.3-.7-.7s.3-.7.7-.7h12.2c.4,0,.7.3.7.7s-.3.7-.7.7Z"/>
  <path class="st6" d="M40.7,34.4h-12.2c-.4,0-.7-.3-.7-.7s.3-.7.7-.7h12.2c.4,0,.7.3.7.7s-.3.7-.7.7Z"/>
  <path class="st6" d="M43.6,61.2c-.4,0-.7-.3-.7-.7v-14.9c0-.4.3-.7.7-.7s.7.3.7.7v14.9c0,.4-.3.7-.7.7Z"/>
  <path class="st3" d="M61.9,46H24.6c-.4,0-.7-.3-.7-.7v-8.2c0-.4.3-.7.7-.7h36.1c1.1,0,1.9.9,1.9,1.9v7c0,.4-.3.7-.7.7ZM25.2,44.7h36v-6.3c0-.3-.3-.6-.6-.6H25.2v6.9Z"/>
  <path class="st6" d="M32.3,37.8h-2.7c-.4,0-.7-.3-.7-.7v-3.4c0-.4.3-.7.7-.7h2.7c.4,0,.7.3.7.7v3.4c0,.4-.3.7-.7.7ZM30.2,36.4h1.4v-2.1h-1.4v2.1Z"/>
  <path class="st6" d="M39.6,37.8h-2.7c-.4,0-.7-.3-.7-.7v-3.4c0-.4.3-.7.7-.7h2.7c.4,0,.7.3.7.7v3.4c0,.4-.3.7-.7.7ZM37.6,36.4h1.4v-2.1h-1.4v2.1Z"/>
  <path class="st6" d="M50.4,37.8h-2.7c-.4,0-.7-.3-.7-.7v-3.4c0-.4.3-.7.7-.7h2.7c.4,0,.7.3.7.7v3.4c0,.4-.3.7-.7.7ZM48.3,36.4h1.4v-2.1h-1.4v2.1Z"/>
  <path class="st6" d="M57.7,37.8h-2.7c-.4,0-.7-.3-.7-.7v-3.4c0-.4.3-.7.7-.7h2.7c.4,0,.7.3.7.7v3.4c0,.4-.3.7-.7.7ZM55.7,36.4h1.4v-2.1h-1.4v2.1Z"/>
  <path class="st3" d="M24.6,61.4H2.9c-1.1,0-1.9-.9-1.9-1.9V12.9c0-1.1.9-1.9,1.9-1.9h20.4c1.1,0,1.9.9,1.9,1.9v47.9c0,.4-.3.7-.7.7ZM2.9,12.3c-.3,0-.6.3-.6.6v46.6c0,.3.3.6.6.6h21V12.9c0-.3-.3-.6-.6-.6H2.9Z"/>
  <path class="st6" d="M6.7,35.6H1.7c-.4,0-.7-.3-.7-.7v-3.5c0-.4.3-.7.7-.7h7.6c.4,0,.7.3.7.7v.9c0,1.8-1.4,3.2-3.2,3.2ZM2.4,34.3h4.4c1,0,1.9-.8,1.9-1.9v-.2H2.4v2.1Z"/>
  <path class="st6" d="M31.2,43.4c-1.2,0-2.3-1-2.3-2.3s1-2.3,2.3-2.3,2.3,1,2.3,2.3-1,2.3-2.3,2.3ZM31.2,40.2c-.5,0-.9.4-.9.9s.4.9.9.9.9-.4.9-.9-.4-.9-.9-.9Z"/>
  <path class="st6" d="M38,43.4c-1.2,0-2.3-1-2.3-2.3s1-2.3,2.3-2.3,2.3,1,2.3,2.3-1,2.3-2.3,2.3ZM38,40.2c-.5,0-.9.4-.9.9s.4.9.9.9.9-.4.9-.9-.4-.9-.9-.9Z"/>
  <path class="st6" d="M56.1,43.4c-1.2,0-2.3-1-2.3-2.3s1-2.3,2.3-2.3,2.3,1,2.3,2.3-1,2.3-2.3,2.3ZM56.1,40.2c-.5,0-.9.4-.9.9s.4.9.9.9.9-.4.9-.9-.4-.9-.9-.9Z"/>
  <path class="st6" d="M49.2,43.4c-1.2,0-2.3-1-2.3-2.3s1-2.3,2.3-2.3,2.3,1,2.3,2.3-1,2.3-2.3,2.3ZM49.2,40.2c-.5,0-.9.4-.9.9s.4.9.9.9.9-.4.9-.9-.4-.9-.9-.9Z"/>
  <path class="st6" d="M60.7,61.4H24.6c-.4,0-.7-.3-.7-.7v-15.4c0-.4.3-.7.7-.7h37.4c.4,0,.7.3.7.7v14.2c0,1.1-.9,1.9-1.9,1.9ZM25.2,60.1h35.5c.3,0,.6-.3.6-.6v-13.5H25.2v14.1Z"/>
  <path class="st6" d="M45.6,55.6h-4c-.7,0-1.3-.6-1.3-1.3v-3.2c0-.7.6-1.3,1.3-1.3h4c.7,0,1.3.6,1.3,1.3v3.2c0,.7-.6,1.3-1.3,1.3ZM41.7,51.1v3.2s0,0,0,0h4v-3.2s-4,0-4,0Z"/>
</svg>