<?xml version="1.0" encoding="UTF-8"?>
<svg id="_x32_3-Bell" xmlns="http://www.w3.org/2000/svg" version="1.1" viewBox="0 0 64 64">
  <!-- Generator: Adobe Illustrator 29.5.1, SVG Export Plug-In . SVG Version: 2.1.0 Build 141)  -->
  <defs>
    <style>
      .st0, .st1 {
        fill-rule: evenodd;
      }

      .st0, .st2 {
        fill: #2a81ea;
      }

      .st1 {
        fill: #8dc1ff;
        stroke: #2a81ea;
        stroke-miterlimit: 10;
        stroke-width: 1.5px;
      }
    </style>
  </defs>
  <path class="st1" d="M42,37.2c0,.1,0,.3,0,.4s.2.2.4.2h5.3c.2,0,.4-.1.4-.3l3.6-17c.3-1.1-.4-2.2-1.5-2.5-1.1-.3-2.2.4-2.5,1.5,0,0-5.7,17.8-5.7,17.8h0ZM13.1,37.4c0,.2.2.3.4.3h5.3c.1,0,.3,0,.4-.2s.1-.3,0-.4l-5.7-17.8c-.3-1.1-1.4-1.7-2.5-1.4-1.1.3-1.8,1.4-1.5,2.5,0,0,3.6,16.9,3.6,16.9h0Z"/>
  <path class="st1" d="M18.9,52.5c0-.2-.2-.4-.4-.4h-3.4c-.2,0-.4.2-.4.4v2.1c0,.4.1.7.4,1,.3.3.6.4,1,.4h1.5c.4,0,.7-.1,1-.4.3-.3.4-.6.4-1v-2.1ZM46.5,52.5c0-.2-.2-.4-.4-.4h-3.4c-.2,0-.4.2-.4.4v2.1c0,.4.1.7.4,1,.3.3.6.4,1,.4h1.5c.4,0,.7-.1,1-.4.3-.3.4-.6.4-1v-2.1Z"/>
  <path class="st1" d="M51.8,50c0-.1.1-.3,0-.5,0-.1-.2-.2-.4-.2H9.7c-.2,0-.3,0-.4.2,0,.1,0,.3,0,.5,0,0,.7,1,1.3,1.8.5.7,1.3,1.1,2.1,1.1h35.7c.9,0,1.7-.4,2.1-1.1.6-.8,1.3-1.8,1.3-1.8Z"/>
  <path class="st1" d="M55.7,39.2c0-1.3-1-2.3-2.3-2.3H7.8c-1.3,0-2.3,1-2.3,2.3v8.7c0,1.3,1,2.3,2.3,2.3h45.6c1.3,0,2.3-1,2.3-2.3v-8.7Z"/>
  <path class="st1" d="M12.5,41c-.9,0-1.7.7-1.7,1.7v1.9c0,.9.7,1.7,1.7,1.7s1.7-.7,1.7-1.7v-1.9c0-.9-.7-1.7-1.7-1.7ZM17.7,41c-.9,0-1.7.7-1.7,1.7v1.9c0,.9.7,1.7,1.7,1.7s1.7-.7,1.7-1.7v-1.9c0-.9-.7-1.7-1.7-1.7ZM22.9,41c-.9,0-1.7.7-1.7,1.7v1.9c0,.9.7,1.7,1.7,1.7s1.7-.7,1.7-1.7v-1.9c0-.9-.7-1.7-1.7-1.7ZM47.7,41c-1.4,0-2.6,1.2-2.6,2.6s1.2,2.6,2.6,2.6,2.6-1.2,2.6-2.6-1.2-2.6-2.6-2.6Z"/>
  <circle class="st2" cx="30.6" cy="30.2" r="3.1"/>
  <path class="st0" d="M37.9,26.1c-1.3-2.7-4.1-4.5-7.3-4.5s-6,1.8-7.3,4.5c-.4.9,0,2,.8,2.5.9.4,2,0,2.5-.8.7-1.5,2.2-2.5,4-2.5s3.3,1,4,2.5c.4.9,1.5,1.3,2.5.8.9-.4,1.3-1.5.8-2.5h0Z"/>
  <path class="st0" d="M41,21.8c-2.2-3.5-6-5.8-10.4-5.8s-8.2,2.3-10.4,5.8c-.5.9-.3,2,.6,2.5.9.5,2,.3,2.5-.6,1.5-2.4,4.2-4,7.3-4s5.8,1.6,7.3,4c.5.9,1.7,1.1,2.5.6.9-.5,1.1-1.7.6-2.5h0Z"/>
</svg>