<?xml version="1.0" encoding="UTF-8"?>
<svg id="Layer_1" xmlns="http://www.w3.org/2000/svg" version="1.1" viewBox="0 0 512 512">
  <!-- Generator: Adobe Illustrator 29.6.1, SVG Export Plug-In . SVG Version: 2.1.1 Build 9)  -->
  <defs>
    <style>
      .st0 {
        fill: #3498fd;
      }
    </style>
  </defs>
  <path class="st0" d="M398,271.5c-5.5,0-10-4.5-10-10v-51.4h-34.3v51.4c0,5.5-4.5,10-10,10s-10-4.5-10-10v-51.4h-2.1c-5.5,0-10-4.5-10-10s4.5-10,10-10h78.5c5.5,0,10,4.5,10,10s-4.5,10-10,10h-2.1v51.4c0,5.5-4.5,10-10,10h0Z"/>
  <path class="st0" d="M398,440.6c-5.5,0-10-4.5-10-10v-108.7c0-5.5,4.5-10,10-10s10,4.5,10,10v108.7c0,5.5-4.5,10-10,10h0ZM343.7,440.6c-5.5,0-10-4.5-10-10v-108.7c0-5.5,4.5-10,10-10s10,4.5,10,10v108.7c0,5.5-4.5,10-10,10h0Z"/>
  <path class="st0" d="M428.2,257.6h-114.7c-18.8,0-34.1,15.3-34.1,34.1v169.1c0,15.4,10.2,28.4,24.1,32.7v8.6c0,5.5,4.5,10,10,10s10-4.5,10-10v-7.1h94.7v7.1c0,5.5,4.5,10,10,10s10-4.5,10-10v-8.6c14-4.3,24.1-17.3,24.1-32.7v-169.1c0-18.8-15.3-34.1-34.1-34.1ZM442.4,460.8c0,7.8-6.3,14.1-14.1,14.1h-114.7c-7.8,0-14.1-6.3-14.1-14.1v-169.1c0-7.8,6.3-14.1,14.1-14.1h114.7c7.8,0,14.1,6.3,14.1,14.1v169.1h0Z"/>
  <path class="st0" d="M296.4,200.1c0-18.2-14.8-33.1-33.1-33.1h-17.3v-7.1c0-23.2-11.6-43.7-29.4-56,17.5-9.3,29.4-27.7,29.4-48.8C246.1,24.8,221.3,0,190.9,0s-55.2,24.8-55.2,55.2,7.1,30.9,18.3,41c-10.8,4.1-20.3,10.8-27.6,19.4-6.3-14-20.3-23.7-36.6-23.7s-40.1,18-40.1,40.1v106.9c0,22.1,18,40.1,40.1,40.1s14.2-2,20.1-5.4v99.1l-30.8,87.3c-3.5,9.8-2.9,20.4,1.6,29.8,4.5,9.4,12.4,16.5,22.2,20,4.3,1.5,8.6,2.2,12.9,2.2,16.1,0,31.2-10,36.8-26l15.3-43.3v30.3c0,21.5,17.5,39,39,39s39-17.5,39-39v-239.7h17.3c18.2,0,33.1-14.8,33.1-33.1h0ZM276.4,200.1c0,7.2-5.9,13.1-13.1,13.1h-67.3c-7.2,0-13.1-5.9-13.1-13.1v-13.1h80.3c7.2,0,13.1,5.9,13.1,13.1ZM190.9,20c19.4,0,35.2,15.8,35.2,35.2s-15.8,35.2-35.2,35.2-35.2-15.8-35.2-35.2,15.8-35.2,35.2-35.2h0ZM89.8,259c-11.1,0-20.1-9-20.1-20.1v-106.9c0-11.1,9-20.1,20.1-20.1s20.1,9,20.1,20.1v106.9c0,11.1-9,20.1-20.1,20.1h0ZM226.1,473c0,10.5-8.5,19-19,19s-19-8.5-19-19v-140.2c0-5.5-4.5-10-10-10s-10,4.5-10,10v49.9l-34.2,96.6c-3.5,9.9-14.4,15.1-24.3,11.6-4.8-1.7-8.6-5.1-10.8-9.7s-2.5-9.8-.8-14.5l31.4-88.9c.4-1.1.6-2.2.6-3.3v-214.5c0-26.5,21.6-48.1,48.1-48.1s48.1,21.6,48.1,48.1v7.1h-43.1v-7.1c0-5.5-4.5-10-10-10s-10,4.5-10,10v40.2c0,18.2,14.8,33.1,33.1,33.1h30v239.7h0Z"/>
</svg>