<?xml version="1.0" encoding="UTF-8"?>
<svg id="Layer_1" xmlns="http://www.w3.org/2000/svg" version="1.1" viewBox="0 0 512 512">
  <!-- Generator: Adobe Illustrator 29.6.1, SVG Export Plug-In . SVG Version: 2.1.1 Build 9)  -->
  <defs>
    <style>
      .st0 {
        fill: #fff;
      }
    </style>
  </defs>
  <g id="ou3zvz.tif">
    <g>
      <path class="st0" d="M74.9,109.9c-5.6-1.3-7.4-10.3-6.1-15.4,2.4-9,22.4-30.3,30.4-36.7C167.5,3.4,312,5.5,369,76.4c7.4,9.2,21.9,28.1,3.6,33.5l-135,.5c-2.1,1.9-2.1,4.3-2.4,6.9-1.5,16.8-1.3,48,0,65,.2,2.2.7,4.2,1.2,6.3h58.5c3.7,0,8.7,7.7,8.7,11v44.6h35.9l4.5-20.1c-1.2-3.8-14.5,1.1-17.8-8.9-3.6-10.7,4.5-29.9,11.1-38.5,7.4-9.6,25.1-21.6,37.5-21.6h27.8c1.7-1,1.6-2.3,1.8-4,1.4-12.1-1.6-26.9.2-39.2,2.7-18.6,18.2-36.7,35.7-43.1,9.1-3.3,28.8-7.3,31.2,5.8v137.7c-1.7,6.4-3.7,8.4-9.9,9.8-2.9.7-8.3-1.4-8.6,3s4.1,18.3,4.8,19c11.6,1.9,34.2-5.8,35.8,11.2l-.9,229.6c-3,5.9-8.9,6.3-14.8,7.2H42.4c-6.7-.8-14.6-.3-18.2-7.2l-.9-284.1c-1.5-3.6,5-12.1,7.6-12.1h182.5v-77l-1.7-1.7H74.9ZM103.2,87.9h56.2c4.7-5.2,6.6-12.6,10.3-18.7,4.2-7,10.9-13.8,14.7-20.1.8-1.4,1.5-2.3,1.1-4.1-25.6,5.2-51.7,13-72.1,30.2s-12.3,10.6-10.2,12.7ZM186.6,87.9h74.7l1.6-2.7c-8.6-16.4-21-31.4-37.6-40.2-5.1-.4-23.4,17.1-27.1,21.8-2.1,2.7-13.5,19.2-11.6,21.1ZM290.3,87.9h56.2c0-4.6-6.6-9.8-10.2-12.7-21.1-17-45.8-25-72.1-30.2-.4,1.8.4,2.7,1.1,4.1,3.2,5.9,10.6,13.4,14.6,20.1,2,3.3,8,18,10.3,18.7ZM448.4,91.4c-6.8-.2-13.8,7-17,12.6-9.8,17.1-2.8,44.1-5,63.3-.4,3.8-3.6,9-7.6,9.8-10.3,2-26.8-1.1-38.2,0-12.8,1.2-27.8,9.6-29.5,23.2h95.6l1.7-1.7v-107.1ZM78.9,211.8h-33.6v32.4h33.6v-32.4ZM146.1,211.8h-43.4l-1.7,1.7v29l1.7,1.7h43.4v-32.4ZM213.3,211.8h-43.4l-1.7,1.7v29l1.7,1.7h43.4v-32.4ZM237,211.8l-1.7,1.7v29l1.7,1.7h42.9l1.7-1.7v-29l-1.7-1.7h-42.9ZM362.7,244.3h71.8l-4.8-20.7c-2.3-1.3-4.8-1.3-7.3-1.4-14-.8-34.9-1-48.8,0s-3.8.3-5.6,1.1l-5.3,21ZM45.3,267.4v199.8l1.7,1.7h422.8l1.7-1.7v-198.1l-1.7-1.7H45.3Z"/>
      <path class="st0" d="M303.8,378.5c5.1,1.6,9.5,4.2,10.3,10s.7,47.3-.7,51.5c-.3,1-3.1,4.9-4,5.3-23.7,1.2-47.5.4-71.3.5-9.4,0-17.5,1.9-27.7,0-4.1-.8-7.1-4.5-7.6-8.6-1.1-9.3-1.2-39.6,0-48.7,1.1-8.4,10.2-9.1,10.5-10.6,1.4-23.9-2.1-50.3,0-74,.8-9.4,3.6-13.7,13.3-14.5,15.6-1.3,49.7-1.7,64.9,0,9.1,1,11.5,6,12.2,14.4,2,23.9-1.8,50.4.1,74.6ZM235.3,315.5v61.4l1.7,1.7h42.9l1.7-1.7v-61.4c0-.3-1.8-3.2-2.3-3.5h-41.7c-.5.3-2.2,2.9-2.3,3.5ZM226.6,401.8l-1.7,1.7v18.5l1.7,1.7h63.7l1.7-1.7v-18.5l-1.7-1.7h-63.7Z"/>
      <path class="st0" d="M438.2,378.5c1.2,1.9,9.2.8,10.3,10s1.2,38.4,0,48.7c-.4,3.6-1.8,5.9-4.7,8.1l-99.9.3c-3.7-1.4-6.2-4.3-6.7-8.3-1.1-9.3-1.2-39.6,0-48.7,1.3-9.4,10.5-6.8,11.6-12.7v-77.6c.8-6.2,6.7-8.2,12.1-8.7,15.6-1.3,49.7-1.7,64.9,0,7.1.8,11.6,4.9,12.2,12.2l.2,76.8ZM370.8,378.6h43.4l1.7-1.7v-62.5c0-.2-2.7-2.9-2.9-2.9h-40.5l-1.7,1.7v65.4ZM426.4,401.8h-65.5l-1.7,1.7v18.5l1.7,1.7h63.7l1.7-1.7v-20.3Z"/>
      <path class="st0" d="M177,443.1c-1.5,1.5-3.7,2.5-5.9,2.8-29.1,3.6-65.3-2.8-95.1,0-5.3-.6-7.1-5-7.5-9.8-.9-10.2-1.4-39.1.1-48.6s10-7.8,10.4-9.5v-76.2c.9-8.2,5.3-11.5,13.2-12.2,15-1.4,50.1-1.6,64.9,0,4.6.5,7.7,2.1,10.4,5.8l.6,80.4c1,5.3,10.6,5,11.6,12.7,1.2,9.3,1.1,39.4,0,48.8s-1.2,4.4-2.8,5.9ZM146.1,378.6v-65.4l-1.7-1.7h-40.5c-.2,0-2.9,2.7-2.9,2.9v62.5l1.7,1.7h43.4ZM90.5,423.8h65.5l1.7-1.7v-18.5l-1.7-1.7h-63.7l-1.7,1.7v20.3Z"/>
    </g>
  </g>
</svg>