<?xml version="1.0" encoding="UTF-8"?>
<svg id="_x32_2-Air_condition" xmlns="http://www.w3.org/2000/svg" version="1.1" viewBox="0 0 64 64">
  <!-- Generator: Adobe Illustrator 29.5.1, SVG Export Plug-In . SVG Version: 2.1.0 Build 141)  -->
  <defs>
    <style>
      .st0 {
        fill: #fff;
      }

      .st0, .st1, .st2 {
        stroke: #2a81ea;
        stroke-miterlimit: 10;
        stroke-width: 1.5px;
      }

      .st0, .st2 {
        fill-rule: evenodd;
      }

      .st1, .st2 {
        fill: #8dc1ff;
      }
    </style>
  </defs>
  <path class="st2" d="M55.1,33.5h-22.3c-.3,0-.5.2-.5.5v12.4c0,.3.2.5.5.5h23.5c.3,0,.5-.2.5-.5v-13.6h-.9c0,.4-.3.7-.7.7h0Z"/>
  <path class="st0" d="M13.8,23.5c0,0,.1,0,.2,0h.8c.2,0,.3-.1.4-.3,0-.2,0-.4,0-.5-.2-.2-.4-.7-.5-1.1-.1-.4-.2-.9,0-1.2,0-.2.2-.4.3-.6.1-.2.1-.5,0-.6-.6-.4-1.3-.8-1.8-.9-.4,0-.6,0-.8,0-.2.1-.4.5-.5.9-.2.8,0,2.1.3,2.8.3.5,1.1,1.1,1.9,1.5h0Z"/>
  <path class="st0" d="M14.4,23.4c0,.1.2.2.4.2h.8c0,0,.2,0,.2,0,.7-.4,1.7-1.5,1.8-2.2.2-.7,0-2-.5-2.7-.2-.4-.5-.7-.8-.8-.2,0-.6,0-1,.3-.7.5-1.6,1.5-1.8,2.1-.1.4,0,1.1,0,1.7.1.6.4,1.2.7,1.5Z"/>
  <path class="st2" d="M55.8,31.4v26.6c0,.3.2.5.5.5s.5-.2.5-.5v-26.6c0-.3-.2-.5-.5-.5s-.5.2-.5.5Z"/>
  <path class="st2" d="M7.2,32.8c0-.3-.2-.5-.5-.5s-.5.2-.5.5v16.8c0,.3.2.5.5.5h24.8c.5,0,.9-.2,1.3-.5.3-.3.5-.8.5-1.3v-14.3c0-.3-.2-.5-.5-.5H7.9c-.4,0-.7-.3-.7-.7h0Z"/>
  <path class="st2" d="M15.8,38.1h8c.3,0,.5-.2.5-.5s-.2-.5-.5-.5h-8c-.3,0-.5.2-.5.5s.2.5.5.5Z"/>
  <path class="st2" d="M15.8,45.6h8c.3,0,.5-.2.5-.5s-.2-.5-.5-.5h-8c-.3,0-.5.2-.5.5s.2.5.5.5Z"/>
  <rect class="st1" x="6.3" y="40.8" width="27" height=".9"/>
  <path class="st0" d="M49.4,8.1c0-1.7-1.4-3.1-3.1-3.1h-20.1c-1.7,0-3.1,1.4-3.1,3.1v13.8c0,1.7,1.4,3.1,3.1,3.1h20.1c1.7,0,3.1-1.4,3.1-3.1,0,0,0-13.8,0-13.8Z"/>
  <path class="st2" d="M6.3,31.4v26.6c0,.3.2.5.5.5s.5-.2.5-.5v-26.6c0-.3-.2-.5-.5-.5s-.5.2-.5.5Z"/>
  <path class="st2" d="M56.8,30c0-.9-.7-1.7-1.7-1.7H7.9c-.9,0-1.7.7-1.7,1.7v2.8c0,.9.7,1.7,1.7,1.7h47.2c.9,0,1.7-.7,1.7-1.7v-2.8Z"/>
  <path class="st2" d="M42.6,24.3c0,0-.2,0-.3,0h-12.2c-.1,0-.2,0-.3,0,0,0-.6.5-1.5,1.1-.7.6-1,1.5-.7,2.4.3.9,1.1,1.5,2,1.5h13.1c.9,0,1.7-.6,2-1.5.3-.9,0-1.8-.7-2.4-.8-.6-1.5-1.1-1.5-1.1Z"/>
  <path class="st2" d="M49.4,20h-26.4v1.9c0,1.7,1.4,3.1,3.1,3.1h20.1c1.7,0,3.1-1.4,3.1-3.1v-1.9h0Z"/>
  <path class="st2" d="M33.4,23h5.6c.3,0,.5-.2.5-.5s-.2-.5-.5-.5h-5.6c-.3,0-.5.2-.5.5s.2.5.5.5Z"/>
  <path class="st2" d="M18.6,24.3c0-.4,0-.8-.3-1.1-.3-.3-.7-.5-1.1-.5h-5.1c-.4,0-.8.2-1.1.5-.3.3-.4.7-.3,1.1.2,1.1.5,2.8.6,3.8.1.7.7,1.2,1.4,1.2h3.8c.7,0,1.3-.5,1.4-1.2.2-1,.4-2.7.6-3.8Z"/>
</svg>