<?xml version="1.0" encoding="UTF-8"?>
<svg id="_x31_7-Key_card" xmlns="http://www.w3.org/2000/svg" version="1.1" viewBox="0 0 64 64">
  <!-- Generator: Adobe Illustrator 29.5.1, SVG Export Plug-In . SVG Version: 2.1.0 Build 141)  -->
  <defs>
    <style>
      .st0 {
        fill: #fff;
      }

      .st0, .st1, .st2, .st3 {
        fill-rule: evenodd;
      }

      .st0, .st2 {
        stroke-width: 1.5px;
      }

      .st0, .st2, .st3 {
        stroke: #2a81ea;
        stroke-miterlimit: 10;
      }

      .st1 {
        fill: #2a81ea;
      }

      .st2 {
        fill: #8dc1ff;
      }

      .st3 {
        fill: #514664;
      }
    </style>
  </defs>
  <path class="st1" d="M25.3,54.3l10.8-6.2c.2-.1.4-.5.2-.8-.1-.2-.5-.4-.8-.2l-10.8,6.2c-.2.1-.4.5-.2.8.1.2.5.4.8.2h0Z"/>
  <path class="st1" d="M26.4,48.1l10.8,6.2c.2.1.6,0,.8-.2.1-.2,0-.6-.2-.8l-10.8-6.2c-.2-.1-.6,0-.8.2-.1.2,0,.6.2.8h0Z"/>
  <path class="st3" d="M7,33v23.7c0,.4.2.6.6.6s.6-.2.6-.6v-23.7c0-.4-.2-.6-.6-.6s-.6.2-.6.6Z"/>
  <path class="st3" d="M54.3,33v23.7c0,.4.2.6.6.6s.6-.2.6-.6v-23.7c0-.4-.2-.6-.6-.6s-.6.2-.6.6Z"/>
  <path class="st3" d="M44.3,38.7h10.5c.4,0,.6-.2.6-.6s-.2-.6-.6-.6h-10.5c-.4,0-.6.2-.6.6s.2.6.6.6ZM7.6,38.7h10.5c.4,0,.6-.2.6-.6s-.2-.6-.6-.6H7.6c-.4,0-.6.2-.6.6s.2.6.6.6Z"/>
  <path class="st2" d="M39.6,45.1c0-.2-.4-.5-.6-.4h-3.7c-.1,0-.4,0-.5.2,0,.1-.1.4,0,.5l3.1,11.5c.4,1.3,1.7,2,3,1.7s2-1.7,1.7-3l-2.9-10.5h-.1ZM23.5,44.8c-.2,0-.6.1-.6.4l-2.9,10.5c-.4,1.3.4,2.6,1.7,3s2.6-.4,3-1.7l3.1-11.5v-.5c0-.1-.2-.2-.5-.2h-3.8Z"/>
  <path class="st2" d="M41.9,27.3c-.1,0-.4,0-.5.2,0,.1-.1.4,0,.5l1.2,5.1c0,.2.2.5.6.5h14.5c1.3,0,2.4-1.1,2.4-2.4v-1.6c0-1.3-1.1-2.4-2.4-2.4h-15.8ZM21,28v-.5c0-.1-.2-.2-.5-.2H4.9c-1.3,0-2.4,1.1-2.4,2.4v1.6c0,1.3,1.1,2.4,2.4,2.4h14.5c.2,0,.5-.2.6-.5l1.2-5.1h-.1Z"/>
  <path class="st0" d="M42.1,25.6c-.4-1.6-1.8-2.6-3.3-2.6h-14.8c-1.6,0-3,1.1-3.3,2.6-.6,2.6-1.8,7.4-2.8,11.5-.5,2.2,0,4.4,1.3,6.1s3.5,2.8,5.6,2.8h13.2c2.2,0,4.3-1,5.6-2.8s1.8-3.9,1.3-6.1c-1-4.1-2.2-8.8-2.8-11.5Z"/>
</svg>