<?xml version="1.0" encoding="UTF-8"?>
<svg id="_x31_7-Key_card" xmlns="http://www.w3.org/2000/svg" version="1.1" viewBox="0 0 64 64">
  <!-- Generator: Adobe Illustrator 29.5.1, SVG Export Plug-In . SVG Version: 2.1.0 Build 141)  -->
  <defs>
    <style>
      .st0 {
        fill: #cce6ff;
        stroke-width: 2px;
      }

      .st0, .st1 {
        stroke: #2a81ea;
        stroke-miterlimit: 10;
      }

      .st2 {
        fill: #c9d5e3;
      }

      .st3 {
        fill: #edf3fa;
      }

      .st1, .st4 {
        fill: #2a81ea;
      }

      .st5 {
        fill: #8dc1ff;
      }
    </style>
  </defs>
  <rect class="st5" x="29.6" y="33.8" width="2.7" height="3.4"/>
  <rect class="st5" x="36.9" y="33.8" width="2.7" height="3.4"/>
  <rect class="st5" x="47.6" y="33.8" width="2.7" height="3.4"/>
  <rect class="st5" x="54.9" y="33.8" width="2.7" height="3.4"/>
  <path class="st0" d="M60.6,37.1H24.6v8.2h37.2v-7c0-.7-.6-1.3-1.3-1.3Z"/>
  <path class="st5" d="M4.1,11.8h18.2c1.3,0,2.3,1,2.3,2.3v46.6H4.1c-1.3,0-2.3-1-2.3-2.3V14.2c0-1.3,1-2.3,2.3-2.3Z"/>
  <path class="st5" d="M9.4,31.7H1.9v3.5h5c1.4,0,2.6-1.2,2.6-2.6v-.9Z"/>
  <circle class="st3" cx="31.2" cy="41.2" r="1.6"/>
  <circle class="st3" cx="38.1" cy="41.2" r="1.6"/>
  <circle class="st3" cx="56" cy="41.2" r="1.6"/>
  <circle class="st3" cx="49.2" cy="41.2" r="1.6"/>
  <path class="st0" d="M24.6,45.4v15.3h36c.7,0,1.3-.6,1.3-1.3v-14.2H24.6Z"/>
  <rect class="st2" x="41" y="50.5" width="5.3" height="4.5" rx=".6" ry=".6"/>
  <rect class="st5" x="41" y="50.5" width="5.3" height="4.5" rx=".6" ry=".6"/>
  <path class="st4" d="M24.3,32.3H2.2c-.3,0-.7-.3-.7-.7s.3-.7.7-.7h22.2c.3,0,.7.3.7.7s-.3.7-.7.7h-.1Z"/>
  <path class="st4" d="M58.7,34.5h-12.2c-.3,0-.7-.3-.7-.7s.3-.7.7-.7h12.2c.3,0,.7.3.7.7s-.3.7-.7.7Z"/>
  <path class="st4" d="M40.7,34.5h-12.2c-.3,0-.7-.3-.7-.7s.3-.7.7-.7h12.2c.3,0,.7.3.7.7s-.3.7-.7.7Z"/>
  <path class="st4" d="M43.6,61.2c-.3,0-.7-.3-.7-.7v-14.8c0-.3.3-.7.7-.7s.7.3.7.7v14.8c0,.3-.3.7-.7.7Z"/>
  <path class="st1" d="M61.8,46.1H24.6c-.3,0-.7-.3-.7-.7v-8.2c0-.3.3-.7.7-.7h36c1,0,1.9.8,1.9,1.9v7c0,.3-.3.7-.7.7h.1ZM25.3,44.8h35.8v-6.3c0-.3-.2-.6-.6-.6H25.3s0,6.8,0,6.8Z"/>
  <path class="st4" d="M32.3,37.8h-2.7c-.3,0-.7-.3-.7-.7v-3.4c0-.3.3-.7.7-.7h2.7c.3,0,.7.3.7.7v3.4c0,.3-.3.7-.7.7ZM30.3,36.6h1.4v-2.1h-1.4v2.1Z"/>
  <path class="st4" d="M39.6,37.8h-2.7c-.3,0-.7-.3-.7-.7v-3.4c0-.3.3-.7.7-.7h2.7c.3,0,.7.3.7.7v3.4c0,.3-.3.7-.7.7ZM37.6,36.6h1.4v-2.1h-1.4v2.1Z"/>
  <path class="st4" d="M50.2,37.8h-2.7c-.3,0-.7-.3-.7-.7v-3.4c0-.3.3-.7.7-.7h2.7c.3,0,.7.3.7.7v3.4c0,.3-.3.7-.7.7ZM48.3,36.6h1.4v-2.1h-1.4v2.1Z"/>
  <path class="st4" d="M57.7,37.8h-2.7c-.3,0-.7-.3-.7-.7v-3.4c0-.3.3-.7.7-.7h2.7c.3,0,.7.3.7.7v3.4c0,.3-.3.7-.7.7ZM55.6,36.6h1.4v-2.1h-1.4v2.1Z"/>
  <path class="st1" d="M24.6,61.4H3c-1,0-1.9-.8-1.9-1.9V13.1c0-1,.8-1.9,1.9-1.9h20.3c1,0,1.9.8,1.9,1.9v47.7c0,.3-.6.6-.6.6ZM3,12.5c-.3,0-.6.2-.6.6v46.4c0,.3.2.6.6.6h20.9V13.1c0-.3-.2-.6-.6-.6H3Z"/>
  <path class="st4" d="M6.9,35.7H1.9c-.3,0-.7-.3-.7-.7v-3.5c0-.3.3-.7.7-.7h7.5c.3,0,.7.3.7.7v.9c0,1.7-1.4,3.2-3.2,3.2ZM2.4,34.5h4.3c1,0,1.9-.8,1.9-1.9v-.2H2.3v2.1h.1Z"/>
  <path class="st4" d="M31.2,43.4c-1.3,0-2.2-1-2.2-2.2s1-2.2,2.2-2.2,2.2,1,2.2,2.2-1,2.2-2.2,2.2ZM31.2,40.3c-.5,0-.9.5-.9.9s.5.9.9.9.9-.5.9-.9-.5-.9-.9-.9Z"/>
  <path class="st4" d="M38.1,43.4c-1.3,0-2.2-1-2.2-2.2s1-2.2,2.2-2.2,2.2,1,2.2,2.2-1,2.2-2.2,2.2ZM38.1,40.3c-.5,0-.9.5-.9.9s.5.9.9.9.9-.5.9-.9-.5-.9-.9-.9Z"/>
  <path class="st4" d="M56,43.4c-1.3,0-2.2-1-2.2-2.2s1-2.2,2.2-2.2,2.2,1,2.2,2.2-1,2.2-2.2,2.2ZM56,40.3c-.5,0-.9.5-.9.9s.5.9.9.9.9-.5.9-.9-.5-.9-.9-.9Z"/>
  <path class="st4" d="M49.2,43.4c-1.3,0-2.2-1-2.2-2.2s1-2.2,2.2-2.2,2.2,1,2.2,2.2-1,2.2-2.2,2.2ZM49.2,40.3c-.5,0-.9.5-.9.9s.5.9.9.9.9-.5.9-.9-.5-.9-.9-.9Z"/>
  <path class="st4" d="M60.6,61.4l-36-1c-.3,0-.7-.3-.7-.7v-14.3c0-.3.3-.7.7-.7h37.2c.3,0,.7.3.7.7v14.2c0,1-.8,1.9-1.9,1.9h-.1ZM25.3,60.1h35.3c.3,0,.6-.2.6-.6v-13.5H25.3s0,14,0,14Z"/>
  <path class="st4" d="M45.6,55.6h-3.9c-.7,0-1.3-.6-1.3-1.3v-3.1c0-.7.6-1.3,1.3-1.3h3.9c.7,0,1.3.6,1.3,1.3v3.1c0,.7-.6,1.3-1.3,1.3ZM41.7,51.1v3.1h3.9v-3.1h-3.9Z"/>
</svg>