<?xml version="1.0" encoding="UTF-8"?>
<svg id="_x32_8-Roomservice" xmlns="http://www.w3.org/2000/svg" version="1.1" viewBox="0 0 64 64">
  <!-- Generator: Adobe Illustrator 29.5.1, SVG Export Plug-In . SVG Version: 2.1.0 Build 141)  -->
  <defs>
    <style>
      .st0 {
        fill: #8dc1ff;
        stroke-miterlimit: 10;
        stroke-width: 1.5px;
      }

      .st0, .st1 {
        stroke: #2a81ea;
      }

      .st1 {
        fill: none;
        stroke-linecap: round;
        stroke-linejoin: round;
        stroke-width: 2px;
      }
    </style>
  </defs>
  <g>
    <g>
      <path class="st0" d="M41.7,41.9c0,6.3-5.1,11.4-11.4,11.4s-11.4-5.1-11.4-11.4,5.1-11.4,11.4-11.4,11.4,5.1,11.4,11.4Z"/>
      <path class="st1" d="M45.4,46.3c-.3,1.2-.8,2.2-1.3,3.3l1.7,2.3-5.6,5.6-2.3-1.7c-1,.6-2.1,1-3.3,1.3l-.4,2.8h-8l-.4-2.8c-1.1-.3-2.2-.8-3.3-1.3l-2.2,1.7-5.6-5.6,1.7-2.2c-.6-1-1-2.1-1.4-3.3l-2.8-.4v-8l2.8-.4c.3-1.2.8-2.2,1.3-3.3l-1.7-2.3,5.6-5.6,2.2,1.7c1-.6,2.1-1,3.3-1.4l.4-2.8h8l.4,2.8c1.2.3,2.2.8,3.3,1.4l2.3-1.7,5.6,5.6-1.8,2.3c.6,1,1,2.1,1.3,3.3l2.8.4v8l-2.8.4Z"/>
    </g>
    <path class="st1" d="M38.2,18c1.7-1.3,3.7-2.1,6-2.1,5.4,0,9.8,4.4,9.8,9.8s-1.8,6.5-4.5,8.2"/>
    <path class="st1" d="M35.7,12.5l1.9,1.5c.9-.5,1.8-.9,2.8-1.2l.3-2.4h6.8l.3,2.4c1,.3,1.9.7,2.8,1.2l1.9-1.5,4.8,4.8-1.5,2c.5.9.9,1.8,1.2,2.8l2.4.3v6.8l-2.4.3c-.3,1-.7,1.9-1.2,2.8l1.5,2-3.5,3.5"/>
    <path class="st1" d="M21.8,18c-1.7-1.3-3.7-2.1-6-2.1-5.4,0-9.8,4.4-9.8,9.8s1.8,6.5,4.4,8.2"/>
    <path class="st1" d="M24.3,12.5l-1.9,1.5c-.9-.5-1.8-.9-2.8-1.2l-.3-2.4h-6.8l-.3,2.4c-1,.3-1.9.7-2.8,1.2l-1.9-1.5-4.8,4.8,1.5,2c-.5.9-.9,1.8-1.2,2.8l-2.4.3v6.8l2.4.3c.3,1,.7,1.9,1.2,2.8l-1.5,2,3.5,3.5"/>
  </g>
  <line class="st1" x1="30.3" y1="21.1" x2="30.3" y2="9.5"/>
  <path class="st1" d="M33.1,6.7c0,1.6-1.3,2.8-2.8,2.8s-2.8-1.3-2.8-2.8,1.3-2.8,2.8-2.8c1.6,0,2.8,1.3,2.8,2.8Z"/>
</svg>