<?xml version="1.0" encoding="UTF-8"?>
<svg id="_x31_5-Bed" xmlns="http://www.w3.org/2000/svg" version="1.1" viewBox="0 0 64 64">
  <!-- Generator: Adobe Illustrator 29.5.1, SVG Export Plug-In . SVG Version: 2.1.0 Build 141)  -->
  <defs>
    <style>
      .st0 {
        fill: #fff;
      }

      .st1 {
        fill: #c5e0fc;
      }

      .st2 {
        fill: #5297f7;
      }

      .st3 {
        fill: #7896a8;
      }

      .st4 {
        fill: #8dc1ff;
      }

      .st5 {
        fill: #2a81ea;
      }
    </style>
  </defs>
  <g>
    <g>
      <rect class="st3" x="3" y="53.4" width="58" height="4.7"/>
      <rect class="st0" x="3" y="47.8" width="58" height="5.6"/>
      <path class="st4" d="M29.2,32.8H12.4c0-1.6.6-3,1.6-4,1-1,2.4-1.6,4-1.6h5.6c3.1,0,5.6,2.5,5.6,5.6Z"/>
      <path class="st4" d="M51.6,32.8h-16.8c0-1.6.6-3,1.6-4,1-1,2.4-1.6,4-1.6h5.6c3.1,0,5.6,2.5,5.6,5.6Z"/>
      <path class="st1" d="M58.2,24.4v9.3h0c-1.1-.6-2.4-.9-3.7-.9h-1.9c0-3.1-2.5-5.6-5.6-5.6h-5.6c-1.6,0-3,.6-4,1.6-1,1-1.6,2.4-1.6,4h-5.6c0-3.1-2.5-5.6-5.6-5.6h-5.6c-1.6,0-3,.6-4,1.6-1,1-1.6,2.4-1.6,4h-1.9c-1.4,0-2.6.4-3.7,1h0v-9.4c0-4.1,3.3-7.5,7.5-7.5h35.5c4.1,0,7.5,3.3,7.5,7.5Z"/>
      <path class="st4" d="M61,47.8H3v-7.5c0-2.8,1.5-5.2,3.8-6.5,1.1-.6,2.4-1,3.7-1h43c1.4,0,2.6.4,3.7,1,2.3,1.3,3.8,3.7,3.8,6.5v7.5Z"/>
    </g>
    <path class="st2" d="M12.4,53.4v.9c0,1,.8,1.9,1.9,1.9h46.7v1.9H3v-4.7h9.3Z"/>
  </g>
  <g>
    <rect class="st5" x="7.7" y="52.5" width="1.9" height="1.9"/>
    <path class="st5" d="M53.5,31.9h-1c-.5-3.2-3.2-5.6-6.5-5.6h-5.6c-3.3,0-6,2.4-6.5,5.6h-3.9c-.5-3.2-3.2-5.6-6.5-5.6h-5.6c-3.3,0-6,2.4-6.5,5.6h-1c-4.6,0-8.4,3.8-8.4,8.4v17.8c0,.5.4.9.9.9h58c.5,0,.9-.4.9-.9v-17.8c0-4.6-3.8-8.4-8.4-8.4ZM40.4,28.2h5.6c2.3,0,4.1,1.6,4.6,3.7h-14.8c.4-2.1,2.3-3.7,4.6-3.7ZM18,28.2h5.6c2.3,0,4.1,1.6,4.6,3.7h-14.8c.4-2.1,2.3-3.7,4.6-3.7ZM10.5,33.8h43c3.6,0,6.5,2.9,6.5,6.5v6.5H4v-6.5c0-3.6,2.9-6.5,6.5-6.5ZM4,57.1v-2.8h1.9v-1.9h-1.9v-3.7h56.1v3.7H3v3.7h57v.9H4Z"/>
    <path class="st5" d="M49.8,16H14.2c-4.6,0-8.4,3.8-8.4,8.4v9.3h1.9v-9.3c0-3.6,2.9-6.5,6.5-6.5h35.5c3.6,0,6.5,2.9,6.5,6.5v9.3h1.9v-9.3c0-4.6-3.8-8.4-8.4-8.4Z"/>
    <rect class="st5" x="56.3" y="43.1" width="1.9" height="1.9"/>
    <rect class="st5" x="52.6" y="43.1" width="1.9" height="1.9"/>
  </g>
</svg>